<svg class="main-svg" xmlns="http://www.w3.org/2000/svg" xmlns:xlink="http://www.w3.org/1999/xlink" width="1224" height="600" style="" viewBox="0 0 1224 600"><rect x="0" y="0" width="1224" height="600" style="fill: rgb(255, 255, 255); fill-opacity: 1;"/><defs id="defs-344a27"><g class="clips"><clipPath id="clip344a27xyplot" class="plotclip"><rect width="1064" height="460"/></clipPath><clipPath class="axesclip" id="clip344a27x"><rect x="80" y="0" width="1064" height="600"/></clipPath><clipPath class="axesclip" id="clip344a27y"><rect x="0" y="60" width="1224" height="460"/></clipPath><clipPath class="axesclip" id="clip344a27xy"><rect x="80" y="60" width="1064" height="460"/></clipPath></g><g class="gradients"/><g class="patterns"/></defs><g class="bglayer"/><g class="layer-below"><g class="imagelayer"/><g class="shapelayer"/></g><g class="cartesianlayer"><g class="subplot xy"><g class="layer-subplot"><g class="shapelayer"/><g class="imagelayer"/></g><g class="minor-gridlayer"><g class="x"/><g class="y"/></g><g class="gridlayer"><g class="x"><path class="xgrid crisp" transform="translate(148.14,0)" d="M0,60v460" style="stroke: rgb(237, 238, 238); stroke-opacity: 1; stroke-width: 0.5px;"/><path class="xgrid crisp" transform="translate(264.83000000000004,0)" d="M0,60v460" style="stroke: rgb(237, 238, 238); stroke-opacity: 1; stroke-width: 0.5px;"/><path class="xgrid crisp" transform="translate(381.51,0)" d="M0,60v460" style="stroke: rgb(237, 238, 238); stroke-opacity: 1; stroke-width: 0.5px;"/><path class="xgrid crisp" transform="translate(498.19,0)" d="M0,60v460" style="stroke: rgb(237, 238, 238); stroke-opacity: 1; stroke-width: 0.5px;"/><path class="xgrid crisp" transform="translate(614.88,0)" d="M0,60v460" style="stroke: rgb(237, 238, 238); stroke-opacity: 1; stroke-width: 0.5px;"/><path class="xgrid crisp" transform="translate(731.56,0)" d="M0,60v460" style="stroke: rgb(237, 238, 238); stroke-opacity: 1; stroke-width: 0.5px;"/><path class="xgrid crisp" transform="translate(848.24,0)" d="M0,60v460" style="stroke: rgb(237, 238, 238); stroke-opacity: 1; stroke-width: 0.5px;"/><path class="xgrid crisp" transform="translate(964.92,0)" d="M0,60v460" style="stroke: rgb(237, 238, 238); stroke-opacity: 1; stroke-width: 0.5px;"/><path class="xgrid crisp" transform="translate(1081.6100000000001,0)" d="M0,60v460" style="stroke: rgb(237, 238, 238); stroke-opacity: 1; stroke-width: 0.5px;"/></g><g class="y"><path class="ygrid crisp" transform="translate(0,482.06)" d="M80,0h1064" style="stroke: rgb(237, 238, 238); stroke-opacity: 1; stroke-width: 0.5px;"/><path class="ygrid crisp" transform="translate(0,452.58)" d="M80,0h1064" style="stroke: rgb(237, 238, 238); stroke-opacity: 1; stroke-width: 0.5px;"/><path class="ygrid crisp" transform="translate(0,423.1)" d="M80,0h1064" style="stroke: rgb(237, 238, 238); stroke-opacity: 1; stroke-width: 0.5px;"/><path class="ygrid crisp" transform="translate(0,393.62)" d="M80,0h1064" style="stroke: rgb(237, 238, 238); stroke-opacity: 1; stroke-width: 0.5px;"/><path class="ygrid crisp" transform="translate(0,364.13)" d="M80,0h1064" style="stroke: rgb(237, 238, 238); stroke-opacity: 1; stroke-width: 0.5px;"/><path class="ygrid crisp" transform="translate(0,334.65)" d="M80,0h1064" style="stroke: rgb(237, 238, 238); stroke-opacity: 1; stroke-width: 0.5px;"/><path class="ygrid crisp" transform="translate(0,305.16999999999996)" d="M80,0h1064" style="stroke: rgb(237, 238, 238); stroke-opacity: 1; stroke-width: 0.5px;"/><path class="ygrid crisp" transform="translate(0,275.69)" d="M80,0h1064" style="stroke: rgb(237, 238, 238); stroke-opacity: 1; stroke-width: 0.5px;"/><path class="ygrid crisp" transform="translate(0,246.21)" d="M80,0h1064" style="stroke: rgb(237, 238, 238); stroke-opacity: 1; stroke-width: 0.5px;"/><path class="ygrid crisp" transform="translate(0,216.73)" d="M80,0h1064" style="stroke: rgb(237, 238, 238); stroke-opacity: 1; stroke-width: 0.5px;"/><path class="ygrid crisp" transform="translate(0,187.25)" d="M80,0h1064" style="stroke: rgb(237, 238, 238); stroke-opacity: 1; stroke-width: 0.5px;"/><path class="ygrid crisp" transform="translate(0,157.76999999999998)" d="M80,0h1064" style="stroke: rgb(237, 238, 238); stroke-opacity: 1; stroke-width: 0.5px;"/><path class="ygrid crisp" transform="translate(0,128.29000000000002)" d="M80,0h1064" style="stroke: rgb(237, 238, 238); stroke-opacity: 1; stroke-width: 0.5px;"/><path class="ygrid crisp" transform="translate(0,98.81)" d="M80,0h1064" style="stroke: rgb(237, 238, 238); stroke-opacity: 1; stroke-width: 0.5px;"/></g></g><g class="zerolinelayer"/><g class="layer-between"><g class="shapelayer"/><g class="imagelayer"/></g><path class="xlines-below"/><path class="ylines-below"/><g class="overlines-below"/><g class="xaxislayer-below"/><g class="yaxislayer-below"/><g class="overaxes-below"/><g class="overplot"><g class="xy" transform="translate(80,60)" clip-path="url(#clip344a27xyplot)"><g class="scatterlayer mlayer"><g class="trace scatter trace81e061" style="stroke-miterlimit: 2; opacity: 1;"><g class="fills"/><g class="errorbars"/><g class="lines"/><g class="points"><path class="point" transform="translate(68.14,422.06)" d="M13.37,0A13.37,13.37 0 1,1 0,-13.37A13.37,13.37 0 0,1 13.37,0Z" style="opacity: 0.7; stroke-width: 1px; fill: rgb(87, 105, 254); fill-opacity: 1; stroke: rgb(255, 255, 255); stroke-opacity: 1;"/><path class="point" transform="translate(184.83,422.06)" d="M8.89,0A8.89,8.89 0 1,1 0,-8.89A8.89,8.89 0 0,1 8.89,0Z" style="opacity: 0.7; stroke-width: 1px; fill: rgb(87, 105, 254); fill-opacity: 1; stroke: rgb(255, 255, 255); stroke-opacity: 1;"/><path class="point" transform="translate(301.51,422.06)" d="M7.21,0A7.21,7.21 0 1,1 0,-7.21A7.21,7.21 0 0,1 7.21,0Z" style="opacity: 0.7; stroke-width: 1px; fill: rgb(87, 105, 254); fill-opacity: 1; stroke: rgb(255, 255, 255); stroke-opacity: 1;"/><path class="point" transform="translate(418.19,422.06)" d="M10.16,0A10.16,10.16 0 1,1 0,-10.16A10.16,10.16 0 0,1 10.16,0Z" style="opacity: 0.7; stroke-width: 1px; fill: rgb(87, 105, 254); fill-opacity: 1; stroke: rgb(255, 255, 255); stroke-opacity: 1;"/><path class="point" transform="translate(534.88,422.06)" d="M12.46,0A12.46,12.46 0 1,1 0,-12.46A12.46,12.46 0 0,1 12.46,0Z" style="opacity: 0.7; stroke-width: 1px; fill: rgb(87, 105, 254); fill-opacity: 1; stroke: rgb(255, 255, 255); stroke-opacity: 1;"/><path class="point" transform="translate(651.56,422.06)" d="M9.84,0A9.84,9.84 0 1,1 0,-9.84A9.84,9.84 0 0,1 9.84,0Z" style="opacity: 0.7; stroke-width: 1px; fill: rgb(87, 105, 254); fill-opacity: 1; stroke: rgb(255, 255, 255); stroke-opacity: 1;"/><path class="point" transform="translate(768.24,422.06)" d="M6.59,0A6.59,6.59 0 1,1 0,-6.59A6.59,6.59 0 0,1 6.59,0Z" style="opacity: 0.7; stroke-width: 1px; fill: rgb(87, 105, 254); fill-opacity: 1; stroke: rgb(255, 255, 255); stroke-opacity: 1;"/><path class="point" transform="translate(884.92,392.58)" d="M7.35,0A7.35,7.35 0 1,1 0,-7.35A7.35,7.35 0 0,1 7.35,0Z" style="opacity: 0.7; stroke-width: 1px; fill: rgb(87, 105, 254); fill-opacity: 1; stroke: rgb(255, 255, 255); stroke-opacity: 1;"/><path class="point" transform="translate(301.51,392.58)" d="M7.55,0A7.55,7.55 0 1,1 0,-7.55A7.55,7.55 0 0,1 7.55,0Z" style="opacity: 0.7; stroke-width: 1px; fill: rgb(87, 105, 254); fill-opacity: 1; stroke: rgb(255, 255, 255); stroke-opacity: 1;"/><path class="point" transform="translate(418.19,392.58)" d="M10.16,0A10.16,10.16 0 1,1 0,-10.16A10.16,10.16 0 0,1 10.16,0Z" style="opacity: 0.7; stroke-width: 1px; fill: rgb(87, 105, 254); fill-opacity: 1; stroke: rgb(255, 255, 255); stroke-opacity: 1;"/><path class="point" transform="translate(651.56,392.58)" d="M6.75,0A6.75,6.75 0 1,1 0,-6.75A6.75,6.75 0 0,1 6.75,0Z" style="opacity: 0.7; stroke-width: 1px; fill: rgb(87, 105, 254); fill-opacity: 1; stroke: rgb(255, 255, 255); stroke-opacity: 1;"/><path class="point" transform="translate(1001.61,392.58)" d="M6.37,0A6.37,6.37 0 1,1 0,-6.37A6.37,6.37 0 0,1 6.37,0Z" style="opacity: 0.7; stroke-width: 1px; fill: rgb(87, 105, 254); fill-opacity: 1; stroke: rgb(255, 255, 255); stroke-opacity: 1;"/><path class="point" transform="translate(68.14,363.1)" d="M8.64,0A8.64,8.64 0 1,1 0,-8.64A8.64,8.64 0 0,1 8.64,0Z" style="opacity: 0.7; stroke-width: 1px; fill: rgb(87, 105, 254); fill-opacity: 1; stroke: rgb(255, 255, 255); stroke-opacity: 1;"/><path class="point" transform="translate(884.92,363.1)" d="M7.01,0A7.01,7.01 0 1,1 0,-7.01A7.01,7.01 0 0,1 7.01,0Z" style="opacity: 0.7; stroke-width: 1px; fill: rgb(87, 105, 254); fill-opacity: 1; stroke: rgb(255, 255, 255); stroke-opacity: 1;"/><path class="point" transform="translate(301.51,363.1)" d="M8.14,0A8.14,8.14 0 1,1 0,-8.14A8.14,8.14 0 0,1 8.14,0Z" style="opacity: 0.7; stroke-width: 1px; fill: rgb(87, 105, 254); fill-opacity: 1; stroke: rgb(255, 255, 255); stroke-opacity: 1;"/><path class="point" transform="translate(418.19,363.1)" d="M11.66,0A11.66,11.66 0 1,1 0,-11.66A11.66,11.66 0 0,1 11.66,0Z" style="opacity: 0.7; stroke-width: 1px; fill: rgb(87, 105, 254); fill-opacity: 1; stroke: rgb(255, 255, 255); stroke-opacity: 1;"/><path class="point" transform="translate(534.88,363.1)" d="M7.59,0A7.59,7.59 0 1,1 0,-7.59A7.59,7.59 0 0,1 7.59,0Z" style="opacity: 0.7; stroke-width: 1px; fill: rgb(87, 105, 254); fill-opacity: 1; stroke: rgb(255, 255, 255); stroke-opacity: 1;"/><path class="point" transform="translate(651.56,363.1)" d="M8.89,0A8.89,8.89 0 1,1 0,-8.89A8.89,8.89 0 0,1 8.89,0Z" style="opacity: 0.7; stroke-width: 1px; fill: rgb(87, 105, 254); fill-opacity: 1; stroke: rgb(255, 255, 255); stroke-opacity: 1;"/><path class="point" transform="translate(418.19,333.62)" d="M7.16,0A7.16,7.16 0 1,1 0,-7.16A7.16,7.16 0 0,1 7.16,0Z" style="opacity: 0.7; stroke-width: 1px; fill: rgb(87, 105, 254); fill-opacity: 1; stroke: rgb(255, 255, 255); stroke-opacity: 1;"/><path class="point" transform="translate(418.19,304.13)" d="M6.59,0A6.59,6.59 0 1,1 0,-6.59A6.59,6.59 0 0,1 6.59,0Z" style="opacity: 0.7; stroke-width: 1px; fill: rgb(87, 105, 254); fill-opacity: 1; stroke: rgb(255, 255, 255); stroke-opacity: 1;"/><path class="point" transform="translate(301.51,274.65)" d="M7.01,0A7.01,7.01 0 1,1 0,-7.01A7.01,7.01 0 0,1 7.01,0Z" style="opacity: 0.7; stroke-width: 1px; fill: rgb(87, 105, 254); fill-opacity: 1; stroke: rgb(255, 255, 255); stroke-opacity: 1;"/><path class="point" transform="translate(418.19,274.65)" d="M8.85,0A8.85,8.85 0 1,1 0,-8.85A8.85,8.85 0 0,1 8.85,0Z" style="opacity: 0.7; stroke-width: 1px; fill: rgb(87, 105, 254); fill-opacity: 1; stroke: rgb(255, 255, 255); stroke-opacity: 1;"/><path class="point" transform="translate(68.14,245.17)" d="M9.84,0A9.84,9.84 0 1,1 0,-9.84A9.84,9.84 0 0,1 9.84,0Z" style="opacity: 0.7; stroke-width: 1px; fill: rgb(87, 105, 254); fill-opacity: 1; stroke: rgb(255, 255, 255); stroke-opacity: 1;"/><path class="point" transform="translate(884.92,245.17)" d="M9.13,0A9.13,9.13 0 1,1 0,-9.13A9.13,9.13 0 0,1 9.13,0Z" style="opacity: 0.7; stroke-width: 1px; fill: rgb(87, 105, 254); fill-opacity: 1; stroke: rgb(255, 255, 255); stroke-opacity: 1;"/><path class="point" transform="translate(301.51,245.17)" d="M9.51,0A9.51,9.51 0 1,1 0,-9.51A9.51,9.51 0 0,1 9.51,0Z" style="opacity: 0.7; stroke-width: 1px; fill: rgb(87, 105, 254); fill-opacity: 1; stroke: rgb(255, 255, 255); stroke-opacity: 1;"/><path class="point" transform="translate(418.19,245.17)" d="M13.15,0A13.15,13.15 0 1,1 0,-13.15A13.15,13.15 0 0,1 13.15,0Z" style="opacity: 0.7; stroke-width: 1px; fill: rgb(87, 105, 254); fill-opacity: 1; stroke: rgb(255, 255, 255); stroke-opacity: 1;"/><path class="point" transform="translate(534.88,245.17)" d="M8.39,0A8.39,8.39 0 1,1 0,-8.39A8.39,8.39 0 0,1 8.39,0Z" style="opacity: 0.7; stroke-width: 1px; fill: rgb(87, 105, 254); fill-opacity: 1; stroke: rgb(255, 255, 255); stroke-opacity: 1;"/><path class="point" transform="translate(651.56,245.17)" d="M9.36,0A9.36,9.36 0 1,1 0,-9.36A9.36,9.36 0 0,1 9.36,0Z" style="opacity: 0.7; stroke-width: 1px; fill: rgb(87, 105, 254); fill-opacity: 1; stroke: rgb(255, 255, 255); stroke-opacity: 1;"/><path class="point" transform="translate(1001.61,245.17)" d="M7.59,0A7.59,7.59 0 1,1 0,-7.59A7.59,7.59 0 0,1 7.59,0Z" style="opacity: 0.7; stroke-width: 1px; fill: rgb(87, 105, 254); fill-opacity: 1; stroke: rgb(255, 255, 255); stroke-opacity: 1;"/><path class="point" transform="translate(68.14,215.69)" d="M8.6,0A8.6,8.6 0 1,1 0,-8.6A8.6,8.6 0 0,1 8.6,0Z" style="opacity: 0.7; stroke-width: 1px; fill: rgb(87, 105, 254); fill-opacity: 1; stroke: rgb(255, 255, 255); stroke-opacity: 1;"/><path class="point" transform="translate(884.92,215.69)" d="M9.69,0A9.69,9.69 0 1,1 0,-9.69A9.69,9.69 0 0,1 9.69,0Z" style="opacity: 0.7; stroke-width: 1px; fill: rgb(87, 105, 254); fill-opacity: 1; stroke: rgb(255, 255, 255); stroke-opacity: 1;"/><path class="point" transform="translate(301.51,215.69)" d="M9.01,0A9.01,9.01 0 1,1 0,-9.01A9.01,9.01 0 0,1 9.01,0Z" style="opacity: 0.7; stroke-width: 1px; fill: rgb(87, 105, 254); fill-opacity: 1; stroke: rgb(255, 255, 255); stroke-opacity: 1;"/><path class="point" transform="translate(418.19,215.69)" d="M12.14,0A12.14,12.14 0 1,1 0,-12.14A12.14,12.14 0 0,1 12.14,0Z" style="opacity: 0.7; stroke-width: 1px; fill: rgb(87, 105, 254); fill-opacity: 1; stroke: rgb(255, 255, 255); stroke-opacity: 1;"/><path class="point" transform="translate(534.88,215.69)" d="M7.21,0A7.21,7.21 0 1,1 0,-7.21A7.21,7.21 0 0,1 7.21,0Z" style="opacity: 0.7; stroke-width: 1px; fill: rgb(87, 105, 254); fill-opacity: 1; stroke: rgb(255, 255, 255); stroke-opacity: 1;"/><path class="point" transform="translate(651.56,215.69)" d="M8.14,0A8.14,8.14 0 1,1 0,-8.14A8.14,8.14 0 0,1 8.14,0Z" style="opacity: 0.7; stroke-width: 1px; fill: rgb(87, 105, 254); fill-opacity: 1; stroke: rgb(255, 255, 255); stroke-opacity: 1;"/><path class="point" transform="translate(1001.61,215.69)" d="M7.4,0A7.4,7.4 0 1,1 0,-7.4A7.4,7.4 0 0,1 7.4,0Z" style="opacity: 0.7; stroke-width: 1px; fill: rgb(87, 105, 254); fill-opacity: 1; stroke: rgb(255, 255, 255); stroke-opacity: 1;"/><path class="point" transform="translate(418.19,186.21)" d="M8,0A8,8 0 1,1 0,-8A8,8 0 0,1 8,0Z" style="opacity: 0.7; stroke-width: 1px; fill: rgb(87, 105, 254); fill-opacity: 1; stroke: rgb(255, 255, 255); stroke-opacity: 1;"/><path class="point" transform="translate(68.14,156.73)" d="M6.53,0A6.53,6.53 0 1,1 0,-6.53A6.53,6.53 0 0,1 6.53,0Z" style="opacity: 0.7; stroke-width: 1px; fill: rgb(87, 105, 254); fill-opacity: 1; stroke: rgb(255, 255, 255); stroke-opacity: 1;"/><path class="point" transform="translate(301.51,156.73)" d="M6.59,0A6.59,6.59 0 1,1 0,-6.59A6.59,6.59 0 0,1 6.59,0Z" style="opacity: 0.7; stroke-width: 1px; fill: rgb(87, 105, 254); fill-opacity: 1; stroke: rgb(255, 255, 255); stroke-opacity: 1;"/><path class="point" transform="translate(418.19,156.73)" d="M8.93,0A8.93,8.93 0 1,1 0,-8.93A8.93,8.93 0 0,1 8.93,0Z" style="opacity: 0.7; stroke-width: 1px; fill: rgb(87, 105, 254); fill-opacity: 1; stroke: rgb(255, 255, 255); stroke-opacity: 1;"/><path class="point" transform="translate(68.14,127.25)" d="M9.2,0A9.2,9.2 0 1,1 0,-9.2A9.2,9.2 0 0,1 9.2,0Z" style="opacity: 0.7; stroke-width: 1px; fill: rgb(87, 105, 254); fill-opacity: 1; stroke: rgb(255, 255, 255); stroke-opacity: 1;"/><path class="point" transform="translate(884.92,127.25)" d="M8.35,0A8.35,8.35 0 1,1 0,-8.35A8.35,8.35 0 0,1 8.35,0Z" style="opacity: 0.7; stroke-width: 1px; fill: rgb(87, 105, 254); fill-opacity: 1; stroke: rgb(255, 255, 255); stroke-opacity: 1;"/><path class="point" transform="translate(301.51,127.25)" d="M8.52,0A8.52,8.52 0 1,1 0,-8.52A8.52,8.52 0 0,1 8.52,0Z" style="opacity: 0.7; stroke-width: 1px; fill: rgb(87, 105, 254); fill-opacity: 1; stroke: rgb(255, 255, 255); stroke-opacity: 1;"/><path class="point" transform="translate(418.19,127.25)" d="M11.72,0A11.72,11.72 0 1,1 0,-11.72A11.72,11.72 0 0,1 11.72,0Z" style="opacity: 0.7; stroke-width: 1px; fill: rgb(87, 105, 254); fill-opacity: 1; stroke: rgb(255, 255, 255); stroke-opacity: 1;"/><path class="point" transform="translate(534.88,127.25)" d="M7.82,0A7.82,7.82 0 1,1 0,-7.82A7.82,7.82 0 0,1 7.82,0Z" style="opacity: 0.7; stroke-width: 1px; fill: rgb(87, 105, 254); fill-opacity: 1; stroke: rgb(255, 255, 255); stroke-opacity: 1;"/><path class="point" transform="translate(651.56,127.25)" d="M8.89,0A8.89,8.89 0 1,1 0,-8.89A8.89,8.89 0 0,1 8.89,0Z" style="opacity: 0.7; stroke-width: 1px; fill: rgb(87, 105, 254); fill-opacity: 1; stroke: rgb(255, 255, 255); stroke-opacity: 1;"/><path class="point" transform="translate(1001.61,127.25)" d="M6.26,0A6.26,6.26 0 1,1 0,-6.26A6.26,6.26 0 0,1 6.26,0Z" style="opacity: 0.7; stroke-width: 1px; fill: rgb(87, 105, 254); fill-opacity: 1; stroke: rgb(255, 255, 255); stroke-opacity: 1;"/><path class="point" transform="translate(68.14,97.77)" d="M8.09,0A8.09,8.09 0 1,1 0,-8.09A8.09,8.09 0 0,1 8.09,0Z" style="opacity: 0.7; stroke-width: 1px; fill: rgb(87, 105, 254); fill-opacity: 1; stroke: rgb(255, 255, 255); stroke-opacity: 1;"/><path class="point" transform="translate(884.92,97.77)" d="M6.31,0A6.31,6.31 0 1,1 0,-6.31A6.31,6.31 0 0,1 6.31,0Z" style="opacity: 0.7; stroke-width: 1px; fill: rgb(87, 105, 254); fill-opacity: 1; stroke: rgb(255, 255, 255); stroke-opacity: 1;"/><path class="point" transform="translate(301.51,97.77)" d="M7.16,0A7.16,7.16 0 1,1 0,-7.16A7.16,7.16 0 0,1 7.16,0Z" style="opacity: 0.7; stroke-width: 1px; fill: rgb(87, 105, 254); fill-opacity: 1; stroke: rgb(255, 255, 255); stroke-opacity: 1;"/><path class="point" transform="translate(418.19,97.77)" d="M10.67,0A10.67,10.67 0 1,1 0,-10.67A10.67,10.67 0 0,1 10.67,0Z" style="opacity: 0.7; stroke-width: 1px; fill: rgb(87, 105, 254); fill-opacity: 1; stroke: rgb(255, 255, 255); stroke-opacity: 1;"/><path class="point" transform="translate(534.88,97.77)" d="M6.7,0A6.7,6.7 0 1,1 0,-6.7A6.7,6.7 0 0,1 6.7,0Z" style="opacity: 0.7; stroke-width: 1px; fill: rgb(87, 105, 254); fill-opacity: 1; stroke: rgb(255, 255, 255); stroke-opacity: 1;"/><path class="point" transform="translate(651.56,97.77)" d="M8.22,0A8.22,8.22 0 1,1 0,-8.22A8.22,8.22 0 0,1 8.22,0Z" style="opacity: 0.7; stroke-width: 1px; fill: rgb(87, 105, 254); fill-opacity: 1; stroke: rgb(255, 255, 255); stroke-opacity: 1;"/><path class="point" transform="translate(418.19,68.29)" d="M6.43,0A6.43,6.43 0 1,1 0,-6.43A6.43,6.43 0 0,1 6.43,0Z" style="opacity: 0.7; stroke-width: 1px; fill: rgb(87, 105, 254); fill-opacity: 1; stroke: rgb(255, 255, 255); stroke-opacity: 1;"/><path class="point" transform="translate(68.14,38.81)" d="M10.02,0A10.02,10.02 0 1,1 0,-10.02A10.02,10.02 0 0,1 10.02,0Z" style="opacity: 0.7; stroke-width: 1px; fill: rgb(87, 105, 254); fill-opacity: 1; stroke: rgb(255, 255, 255); stroke-opacity: 1;"/><path class="point" transform="translate(884.92,38.81)" d="M10.57,0A10.57,10.57 0 1,1 0,-10.57A10.57,10.57 0 0,1 10.57,0Z" style="opacity: 0.7; stroke-width: 1px; fill: rgb(87, 105, 254); fill-opacity: 1; stroke: rgb(255, 255, 255); stroke-opacity: 1;"/><path class="point" transform="translate(301.51,38.81)" d="M10.37,0A10.37,10.37 0 1,1 0,-10.37A10.37,10.37 0 0,1 10.37,0Z" style="opacity: 0.7; stroke-width: 1px; fill: rgb(87, 105, 254); fill-opacity: 1; stroke: rgb(255, 255, 255); stroke-opacity: 1;"/><path class="point" transform="translate(418.19,38.81)" d="M14.14,0A14.14,14.14 0 1,1 0,-14.14A14.14,14.14 0 0,1 14.14,0Z" style="opacity: 0.7; stroke-width: 1px; fill: rgb(87, 105, 254); fill-opacity: 1; stroke: rgb(255, 255, 255); stroke-opacity: 1;"/><path class="point" transform="translate(534.88,38.81)" d="M8.52,0A8.52,8.52 0 1,1 0,-8.52A8.52,8.52 0 0,1 8.52,0Z" style="opacity: 0.7; stroke-width: 1px; fill: rgb(87, 105, 254); fill-opacity: 1; stroke: rgb(255, 255, 255); stroke-opacity: 1;"/><path class="point" transform="translate(651.56,38.81)" d="M9.73,0A9.73,9.73 0 1,1 0,-9.73A9.73,9.73 0 0,1 9.73,0Z" style="opacity: 0.7; stroke-width: 1px; fill: rgb(87, 105, 254); fill-opacity: 1; stroke: rgb(255, 255, 255); stroke-opacity: 1;"/><path class="point" transform="translate(1001.61,38.81)" d="M8.22,0A8.22,8.22 0 1,1 0,-8.22A8.22,8.22 0 0,1 8.22,0Z" style="opacity: 0.7; stroke-width: 1px; fill: rgb(87, 105, 254); fill-opacity: 1; stroke: rgb(255, 255, 255); stroke-opacity: 1;"/></g><g class="text"/></g></g></g></g><path class="xlines-above crisp" d="M0,0" style="fill: none;"/><path class="ylines-above crisp" d="M0,0" style="fill: none;"/><g class="overlines-above"/><g class="xaxislayer-above"><g class="xtick"><text text-anchor="middle" x="0" y="533" transform="translate(148.14,0)" style="font-family: system-ui, -apple-system, 'Segoe UI', Roboto, 'Helvetica Neue', 'Noto Sans', 'Liberation Sans', Arial, sans-serif, 'Apple Color Emoji', 'Segoe UI Emoji', 'Segoe UI Symbol', 'Noto Color Emoji'; font-size: 12px; fill: rgb(33, 37, 41); fill-opacity: 1; white-space: pre; opacity: 1;">Hip-Hop</text></g><g class="xtick"><text text-anchor="middle" x="0" y="533" transform="translate(264.83000000000004,0)" style="font-family: system-ui, -apple-system, 'Segoe UI', Roboto, 'Helvetica Neue', 'Noto Sans', 'Liberation Sans', Arial, sans-serif, 'Apple Color Emoji', 'Segoe UI Emoji', 'Segoe UI Symbol', 'Noto Color Emoji'; font-size: 12px; fill: rgb(33, 37, 41); fill-opacity: 1; white-space: pre; opacity: 1;">Unknown</text></g><g class="xtick"><text text-anchor="middle" x="0" y="533" transform="translate(381.51,0)" style="font-family: system-ui, -apple-system, 'Segoe UI', Roboto, 'Helvetica Neue', 'Noto Sans', 'Liberation Sans', Arial, sans-serif, 'Apple Color Emoji', 'Segoe UI Emoji', 'Segoe UI Symbol', 'Noto Color Emoji'; font-size: 12px; fill: rgb(33, 37, 41); fill-opacity: 1; white-space: pre; opacity: 1;">female vocalists</text></g><g class="xtick"><text text-anchor="middle" x="0" y="533" transform="translate(498.19,0)" style="font-family: system-ui, -apple-system, 'Segoe UI', Roboto, 'Helvetica Neue', 'Noto Sans', 'Liberation Sans', Arial, sans-serif, 'Apple Color Emoji', 'Segoe UI Emoji', 'Segoe UI Symbol', 'Noto Color Emoji'; font-size: 12px; fill: rgb(33, 37, 41); fill-opacity: 1; white-space: pre; opacity: 1;">pop</text></g><g class="xtick"><text text-anchor="middle" x="0" y="533" transform="translate(614.88,0)" style="font-family: system-ui, -apple-system, 'Segoe UI', Roboto, 'Helvetica Neue', 'Noto Sans', 'Liberation Sans', Arial, sans-serif, 'Apple Color Emoji', 'Segoe UI Emoji', 'Segoe UI Symbol', 'Noto Color Emoji'; font-size: 12px; fill: rgb(33, 37, 41); fill-opacity: 1; white-space: pre; opacity: 1;">rap</text></g><g class="xtick"><text text-anchor="middle" x="0" y="533" transform="translate(731.56,0)" style="font-family: system-ui, -apple-system, 'Segoe UI', Roboto, 'Helvetica Neue', 'Noto Sans', 'Liberation Sans', Arial, sans-serif, 'Apple Color Emoji', 'Segoe UI Emoji', 'Segoe UI Symbol', 'Noto Color Emoji'; font-size: 12px; fill: rgb(33, 37, 41); fill-opacity: 1; white-space: pre; opacity: 1;">rnb</text></g><g class="xtick"><text text-anchor="middle" x="0" y="533" transform="translate(848.24,0)" style="font-family: system-ui, -apple-system, 'Segoe UI', Roboto, 'Helvetica Neue', 'Noto Sans', 'Liberation Sans', Arial, sans-serif, 'Apple Color Emoji', 'Segoe UI Emoji', 'Segoe UI Symbol', 'Noto Color Emoji'; font-size: 12px; fill: rgb(33, 37, 41); fill-opacity: 1; white-space: pre; opacity: 1;">trap</text></g><g class="xtick"><text text-anchor="middle" x="0" y="533" transform="translate(964.92,0)" style="font-family: system-ui, -apple-system, 'Segoe UI', Roboto, 'Helvetica Neue', 'Noto Sans', 'Liberation Sans', Arial, sans-serif, 'Apple Color Emoji', 'Segoe UI Emoji', 'Segoe UI Symbol', 'Noto Color Emoji'; font-size: 12px; fill: rgb(33, 37, 41); fill-opacity: 1; white-space: pre; opacity: 1;">country</text></g><g class="xtick"><text text-anchor="middle" x="0" y="533" transform="translate(1081.6100000000001,0)" style="font-family: system-ui, -apple-system, 'Segoe UI', Roboto, 'Helvetica Neue', 'Noto Sans', 'Liberation Sans', Arial, sans-serif, 'Apple Color Emoji', 'Segoe UI Emoji', 'Segoe UI Symbol', 'Noto Color Emoji'; font-size: 12px; fill: rgb(33, 37, 41); fill-opacity: 1; white-space: pre; opacity: 1;">rock</text></g></g><g class="yaxislayer-above"><g class="ytick"><text text-anchor="end" x="79" y="4.199999999999999" transform="translate(0,452.58)" style="font-family: system-ui, -apple-system, 'Segoe UI', Roboto, 'Helvetica Neue', 'Noto Sans', 'Liberation Sans', Arial, sans-serif, 'Apple Color Emoji', 'Segoe UI Emoji', 'Segoe UI Symbol', 'Noto Color Emoji'; font-size: 12px; fill: rgb(33, 37, 41); fill-opacity: 1; white-space: pre; opacity: 1;">A</text></g><g class="ytick"><text text-anchor="end" x="79" y="4.199999999999999" transform="translate(0,423.1)" style="font-family: system-ui, -apple-system, 'Segoe UI', Roboto, 'Helvetica Neue', 'Noto Sans', 'Liberation Sans', Arial, sans-serif, 'Apple Color Emoji', 'Segoe UI Emoji', 'Segoe UI Symbol', 'Noto Color Emoji'; font-size: 12px; fill: rgb(33, 37, 41); fill-opacity: 1; white-space: pre; opacity: 1;">Am</text></g><g class="ytick"><text text-anchor="end" x="79" y="4.199999999999999" transform="translate(0,393.62)" style="font-family: system-ui, -apple-system, 'Segoe UI', Roboto, 'Helvetica Neue', 'Noto Sans', 'Liberation Sans', Arial, sans-serif, 'Apple Color Emoji', 'Segoe UI Emoji', 'Segoe UI Symbol', 'Noto Color Emoji'; font-size: 12px; fill: rgb(33, 37, 41); fill-opacity: 1; white-space: pre; opacity: 1;">B</text></g><g class="ytick"><text text-anchor="end" x="79" y="4.199999999999999" transform="translate(0,364.13)" style="font-family: system-ui, -apple-system, 'Segoe UI', Roboto, 'Helvetica Neue', 'Noto Sans', 'Liberation Sans', Arial, sans-serif, 'Apple Color Emoji', 'Segoe UI Emoji', 'Segoe UI Symbol', 'Noto Color Emoji'; font-size: 12px; fill: rgb(33, 37, 41); fill-opacity: 1; white-space: pre; opacity: 1;">Bb</text></g><g class="ytick"><text text-anchor="end" x="79" y="4.199999999999999" transform="translate(0,334.65)" style="font-family: system-ui, -apple-system, 'Segoe UI', Roboto, 'Helvetica Neue', 'Noto Sans', 'Liberation Sans', Arial, sans-serif, 'Apple Color Emoji', 'Segoe UI Emoji', 'Segoe UI Symbol', 'Noto Color Emoji'; font-size: 12px; fill: rgb(33, 37, 41); fill-opacity: 1; white-space: pre; opacity: 1;">Bm</text></g><g class="ytick"><text text-anchor="end" x="79" y="4.199999999999999" transform="translate(0,305.16999999999996)" style="font-family: system-ui, -apple-system, 'Segoe UI', Roboto, 'Helvetica Neue', 'Noto Sans', 'Liberation Sans', Arial, sans-serif, 'Apple Color Emoji', 'Segoe UI Emoji', 'Segoe UI Symbol', 'Noto Color Emoji'; font-size: 12px; fill: rgb(33, 37, 41); fill-opacity: 1; white-space: pre; opacity: 1;">C</text></g><g class="ytick"><text text-anchor="end" x="79" y="4.199999999999999" transform="translate(0,275.69)" style="font-family: system-ui, -apple-system, 'Segoe UI', Roboto, 'Helvetica Neue', 'Noto Sans', 'Liberation Sans', Arial, sans-serif, 'Apple Color Emoji', 'Segoe UI Emoji', 'Segoe UI Symbol', 'Noto Color Emoji'; font-size: 12px; fill: rgb(33, 37, 41); fill-opacity: 1; white-space: pre; opacity: 1;">D</text></g><g class="ytick"><text text-anchor="end" x="79" y="4.199999999999999" transform="translate(0,246.21)" style="font-family: system-ui, -apple-system, 'Segoe UI', Roboto, 'Helvetica Neue', 'Noto Sans', 'Liberation Sans', Arial, sans-serif, 'Apple Color Emoji', 'Segoe UI Emoji', 'Segoe UI Symbol', 'Noto Color Emoji'; font-size: 12px; fill: rgb(33, 37, 41); fill-opacity: 1; white-space: pre; opacity: 1;">Dm</text></g><g class="ytick"><text text-anchor="end" x="79" y="4.199999999999999" transform="translate(0,216.73)" style="font-family: system-ui, -apple-system, 'Segoe UI', Roboto, 'Helvetica Neue', 'Noto Sans', 'Liberation Sans', Arial, sans-serif, 'Apple Color Emoji', 'Segoe UI Emoji', 'Segoe UI Symbol', 'Noto Color Emoji'; font-size: 12px; fill: rgb(33, 37, 41); fill-opacity: 1; white-space: pre; opacity: 1;">E</text></g><g class="ytick"><text text-anchor="end" x="79" y="4.199999999999999" transform="translate(0,187.25)" style="font-family: system-ui, -apple-system, 'Segoe UI', Roboto, 'Helvetica Neue', 'Noto Sans', 'Liberation Sans', Arial, sans-serif, 'Apple Color Emoji', 'Segoe UI Emoji', 'Segoe UI Symbol', 'Noto Color Emoji'; font-size: 12px; fill: rgb(33, 37, 41); fill-opacity: 1; white-space: pre; opacity: 1;">Em</text></g><g class="ytick"><text text-anchor="end" x="79" y="4.199999999999999" transform="translate(0,157.76999999999998)" style="font-family: system-ui, -apple-system, 'Segoe UI', Roboto, 'Helvetica Neue', 'Noto Sans', 'Liberation Sans', Arial, sans-serif, 'Apple Color Emoji', 'Segoe UI Emoji', 'Segoe UI Symbol', 'Noto Color Emoji'; font-size: 12px; fill: rgb(33, 37, 41); fill-opacity: 1; white-space: pre; opacity: 1;">F</text></g><g class="ytick"><text text-anchor="end" x="79" y="4.199999999999999" transform="translate(0,128.29000000000002)" style="font-family: system-ui, -apple-system, 'Segoe UI', Roboto, 'Helvetica Neue', 'Noto Sans', 'Liberation Sans', Arial, sans-serif, 'Apple Color Emoji', 'Segoe UI Emoji', 'Segoe UI Symbol', 'Noto Color Emoji'; font-size: 12px; fill: rgb(33, 37, 41); fill-opacity: 1; white-space: pre; opacity: 1;">F#m</text></g><g class="ytick"><text text-anchor="end" x="79" y="4.199999999999999" transform="translate(0,98.81)" style="font-family: system-ui, -apple-system, 'Segoe UI', Roboto, 'Helvetica Neue', 'Noto Sans', 'Liberation Sans', Arial, sans-serif, 'Apple Color Emoji', 'Segoe UI Emoji', 'Segoe UI Symbol', 'Noto Color Emoji'; font-size: 12px; fill: rgb(33, 37, 41); fill-opacity: 1; white-space: pre; opacity: 1;">G</text></g></g><g class="overaxes-above"/></g></g><g class="polarlayer"/><g class="smithlayer"/><g class="ternarylayer"/><g class="geolayer"/><g class="funnelarealayer"/><g class="pielayer"/><g class="iciclelayer"/><g class="treemaplayer"/><g class="sunburstlayer"/><g class="glimages"/><defs id="topdefs-344a27"><g class="clips"/></defs><g class="layer-above"><g class="imagelayer"/><g class="shapelayer"/></g><g class="infolayer"><g class="g-gtitle"/><g class="g-xtitle"><text class="xtitle" x="612" y="559.8" text-anchor="middle" style="opacity: 1; font-family: system-ui, -apple-system, 'Segoe UI', Roboto, 'Helvetica Neue', 'Noto Sans', 'Liberation Sans', Arial, sans-serif, 'Apple Color Emoji', 'Segoe UI Emoji', 'Segoe UI Symbol', 'Noto Color Emoji'; font-size: 14px; fill: rgb(33, 37, 41); fill-opacity: 1; white-space: pre;">Top_Tags</text></g><g class="g-ytitle"><text class="ytitle" transform="rotate(-90,35.959375,290)" x="35.959375" y="290" text-anchor="middle" style="opacity: 1; font-family: system-ui, -apple-system, 'Segoe UI', Roboto, 'Helvetica Neue', 'Noto Sans', 'Liberation Sans', Arial, sans-serif, 'Apple Color Emoji', 'Segoe UI Emoji', 'Segoe UI Symbol', 'Noto Color Emoji'; font-size: 14px; fill: rgb(33, 37, 41); fill-opacity: 1; white-space: pre;">Chords</text></g></g></svg>